<svg width="9" height="9" viewBox="0 0 9 9" fill="none" xmlns="http://www.w3.org/2000/svg">
<path d="M4.152 9C3.732 7.944 3.396 7.344 1.92 5.316C0.972 4.02 0.612 3.168 0.612 2.292C0.612 1.236 1.524 0.372 2.58 0.372C3.324 0.372 4.008 0.756 4.428 1.536C4.86 0.756 5.544 0.372 6.3 0.372C7.332 0.372 8.268 1.236 8.268 2.292C8.268 3.144 7.968 3.948 6.96 5.328C5.472 7.368 5.112 8.004 4.716 9H4.152ZM4.428 7.956C4.728 7.344 5.256 6.54 5.964 5.568C6.672 4.596 7.116 3.888 7.308 3.468C7.5 3.048 7.596 2.652 7.596 2.292C7.596 1.608 6.996 1.044 6.3 1.044C5.604 1.044 5.016 1.644 4.74 2.64H4.128C3.828 1.56 3.24 1.044 2.58 1.044C1.896 1.044 1.284 1.608 1.284 2.292C1.284 2.64 1.38 3.024 1.56 3.444C1.74 3.864 2.184 4.548 2.88 5.496C3.576 6.432 4.092 7.26 4.428 7.956Z" fill="white"/>
</svg>
